<?xml version="1.0" standalone="no"?>
<!DOCTYPE svg PUBLIC "-//W3C//DTD SVG 20010904//EN"
 "http://www.w3.org/TR/2001/REC-SVG-20010904/DTD/svg10.dtd">
<svg version="1.0" xmlns="http://www.w3.org/2000/svg"
 width="300.000000pt" height="300.000000pt" viewBox="0 0 300.000000 300.000000"
 preserveAspectRatio="xMidYMid meet">

<g transform="translate(0.000000,300.000000) scale(0.100000,-0.100000)"
fill="#000000" stroke="none">
<path d="M1460 1992 c-36 -10 -76 -24 -90 -32 -51 -27 -130 -83 -130 -92 0 -5
5 -6 10 -3 6 3 10 2 10 -4 0 -6 9 -15 20 -21 16 -8 28 -4 67 23 158 109 387
122 561 32 34 -18 62 -31 62 -29 0 3 -30 24 -67 48 -131 84 -309 115 -443 78z"/>
<path d="M1330 1645 c0 -127 5 -135 54 -90 24 23 26 30 26 115 l0 90 -40 0
-40 0 0 -115z"/>
<path d="M1549 1722 c29 -41 30 -138 1 -175 l-20 -25 23 6 c53 13 97 64 97
112 0 41 -44 87 -99 105 l-24 7 22 -30z"/>
<path d="M1238 1703 c-46 -54 -100 -225 -92 -292 14 -122 55 -210 134 -290
111 -113 259 -160 427 -136 24 3 45 6 48 5 3 0 18 6 33 14 15 7 48 24 74 37
58 29 57 34 -2 12 -32 -12 -79 -17 -160 -17 -126 -1 -199 16 -257 60 -17 13
-35 24 -40 24 -12 0 -112 102 -129 131 -20 35 -45 91 -49 108 -2 9 -8 30 -14
48 -12 40 -6 186 9 227 7 17 18 43 26 59 17 31 14 35 -8 10z"/>
<path d="M1330 1385 l0 -125 40 0 40 0 0 99 c0 93 -1 100 -26 125 -49 48 -54
39 -54 -99z"/>
<path d="M1561 1463 c10 -21 19 -47 19 -60 0 -12 5 -45 11 -73 14 -64 49 -90
122 -90 66 0 101 21 127 75 24 50 23 106 -3 132 -11 11 -19 0 -47 -69 -43
-104 -57 -128 -81 -128 -25 0 -39 37 -39 102 0 27 -7 64 -15 82 -17 34 -61 66
-93 66 -20 0 -20 0 -1 -37z"/>
<path d="M1970 1467 c0 -2 16 -43 36 -93 39 -98 69 -134 115 -134 37 0 36 3
-27 138 l-43 92 -40 0 c-23 0 -41 -1 -41 -3z"/>
</g>
</svg>
