<?xml version="1.0" standalone="no"?>
<!DOCTYPE svg PUBLIC "-//W3C//DTD SVG 20010904//EN"
 "http://www.w3.org/TR/2001/REC-SVG-20010904/DTD/svg10.dtd">
<svg version="1.0" xmlns="http://www.w3.org/2000/svg"
 width="300.000000pt" height="300.000000pt" viewBox="0 0 300.000000 300.000000"
 preserveAspectRatio="xMidYMid meet">

<g transform="translate(0.000000,300.000000) scale(0.100000,-0.100000)"
fill="#000000" stroke="none">
<path d="M1355 2446 c-54 -13 -154 -64 -196 -99 l-27 -22 27 -22 27 -21 56 38
c146 98 384 116 539 41 23 -12 44 -19 46 -17 5 4 -82 54 -137 80 -79 36 -236
46 -335 22z"/>
<path d="M1220 2096 c0 -110 1 -114 20 -109 44 12 60 50 60 139 l0 84 -40 0
-40 0 0 -114z"/>
<path d="M1444 2175 c22 -33 22 -142 0 -174 -16 -23 -16 -23 7 -16 38 11 89
70 89 104 0 34 -31 76 -70 96 -40 21 -45 19 -26 -10z"/>
<path d="M1128 2153 c-8 -10 -30 -49 -48 -88 -29 -63 -33 -80 -34 -165 -1
-115 20 -189 76 -264 21 -28 38 -54 38 -57 0 -7 146 -110 152 -109 2 1 10 -1
18 -4 97 -33 226 -42 305 -21 43 11 172 73 180 86 4 6 -11 1 -34 -10 -42 -22
-62 -26 -163 -37 -126 -14 -272 40 -375 139 -58 55 -110 129 -118 167 -2 8 -8
29 -15 45 -12 31 -16 144 -7 207 3 20 14 57 26 82 22 50 22 55 -1 29z"/>
<path d="M1220 1835 l0 -125 40 0 40 0 0 100 c0 96 -1 102 -26 125 -49 46 -54
37 -54 -100z"/>
<path d="M1449 1933 c5 -10 16 -56 25 -102 15 -82 35 -121 63 -121 7 0 13 -4
13 -10 0 -20 100 -11 132 12 43 30 79 111 67 151 -13 45 -27 55 -38 26 -26
-70 -84 -178 -96 -183 -37 -14 -55 20 -55 106 0 55 -23 104 -59 122 -42 22
-64 21 -52 -1z"/>
<path d="M1872 1918 c3 -7 17 -50 32 -95 31 -92 64 -133 107 -133 16 0 29 4
29 9 0 5 -21 59 -46 120 l-47 111 -39 0 c-28 0 -39 -4 -36 -12z"/>
<path d="M1280 1295 c0 -8 7 -15 15 -15 8 0 15 7 15 15 0 8 -7 15 -15 15 -8 0
-15 -7 -15 -15z"/>
<path d="M1522 1218 l3 -93 38 -3 c28 -2 37 0 37 12 0 11 -9 16 -30 16 -28 0
-30 2 -30 40 0 38 2 40 30 40 39 0 41 27 3 32 -20 2 -29 9 -31 26 -2 12 -8 22
-13 22 -6 0 -9 -38 -7 -92z"/>
<path d="M730 1210 c0 -73 3 -90 15 -90 10 0 15 10 15 30 0 28 3 30 34 30 27
0 39 -7 56 -30 12 -16 30 -30 41 -30 20 0 20 0 0 27 l-21 26 20 19 c22 20 26
58 10 89 -9 16 -22 19 -90 19 l-80 0 0 -90z m150 30 l0 -30 -60 0 -60 0 0 30
0 30 60 0 60 0 0 -30z"/>
<path d="M1772 1288 c-7 -7 -12 -43 -12 -90 0 -63 3 -78 15 -78 10 0 15 10 15
30 l0 30 60 0 60 0 0 -30 c0 -20 5 -30 15 -30 12 0 15 15 15 71 0 101 -6 109
-88 109 -40 0 -73 -5 -80 -12z m138 -48 l0 -30 -60 0 -60 0 0 30 0 30 60 0 60
0 0 -30z"/>
<path d="M947 1254 c-12 -12 -8 -109 5 -122 7 -7 38 -12 70 -12 45 0 58 3 58
15 0 12 -13 15 -55 15 -42 0 -55 3 -55 15 0 12 13 15 56 15 l55 0 -3 38 -3 37
-60 3 c-34 2 -64 0 -68 -4z m103 -34 c0 -5 -18 -10 -40 -10 -22 0 -40 5 -40
10 0 6 18 10 40 10 22 0 40 -4 40 -10z"/>
<path d="M1116 1245 c-10 -28 -7 -100 6 -113 7 -7 34 -12 61 -12 61 0 60 -24
-1 -28 -29 -2 -42 -8 -42 -18 0 -19 83 -19 99 0 8 9 11 45 9 98 l-3 83 -61 3
c-49 2 -63 0 -68 -13z m114 -55 l0 -40 -45 0 -45 0 0 40 0 40 45 0 45 0 0 -40z"/>
<path d="M1280 1190 c0 -56 3 -70 15 -70 12 0 15 14 15 70 0 56 -3 70 -15 70
-12 0 -15 -14 -15 -70z"/>
<path d="M1344 1235 c-10 -38 11 -55 67 -55 39 0 49 -3 49 -16 0 -14 -9 -16
-60 -11 -33 3 -60 2 -60 -2 0 -19 29 -31 77 -31 57 0 80 20 66 57 -10 26 -23
33 -70 33 -24 0 -43 5 -43 10 0 6 25 10 56 10 80 0 68 24 -14 28 -59 3 -62 2
-68 -23z"/>
<path d="M1637 1253 c-11 -10 -8 -133 3 -133 6 0 10 24 10 54 l0 55 42 3 c62
4 62 28 1 28 -28 0 -53 -3 -56 -7z"/>
<path d="M1970 1160 c0 -82 3 -100 15 -100 10 0 15 10 15 30 0 29 2 30 43 30
62 0 69 8 65 76 l-3 59 -67 3 -68 3 0 -101z m120 30 l0 -40 -45 0 -45 0 0 40
0 40 45 0 45 0 0 -40z"/>
<path d="M2140 1160 c0 -60 4 -100 10 -100 6 0 10 14 10 30 0 29 1 30 48 30
59 0 72 12 72 66 0 70 -4 74 -76 74 l-64 0 0 -100z m110 30 l0 -40 -45 0 -45
0 0 40 0 40 45 0 45 0 0 -40z"/>
</g>
</svg>
