<svg version="1.1" id="Layer_1" xmlns="http://www.w3.org/2000/svg" xmlns:xlink="http://www.w3.org/1999/xlink" x="0px" y="0px"
	 width="100%" viewBox="0 0 288 288" enable-background="new 0 0 288 288" xml:space="preserve">
<path fill="#000000" opacity="1.000000" stroke="none" 
	d="
M116.981544,141.030731 
	C111.024376,153.334549 112.854042,165.580231 117.460327,177.710022 
	C118.776047,181.174728 120.751877,184.388779 122.693764,188.252472 
	C111.520164,181.957184 103.580742,161.460236 106.068756,145.374405 
	C110.002625,119.940659 127.780479,102.862778 153.476486,99.144501 
	C171.279236,96.568413 196.314163,106.447975 202.375458,119.301514 
	C199.000031,117.115005 196.527420,115.279984 193.851608,113.816521 
	C170.046982,100.797279 143.690140,106.096909 125.942825,124.942162 
	C124.788933,126.167442 123.788025,127.478271 123.016884,129.716919 
	C120.188957,133.552887 118.172920,137.071609 116.981544,141.030731 
z"/>
<path fill="#000000" opacity="1.000000" stroke="none" 
	d="
M116.912170,141.418518 
	C118.172920,137.071609 120.188957,133.552887 122.949051,130.040802 
	C126.030220,127.703285 127.559212,124.000504 132.580444,122.308289 
	C118.607162,145.401932 118.818932,166.931335 138.677734,184.423538 
	C157.336823,200.859024 178.554092,200.462494 199.667480,187.352325 
	C197.060638,199.530426 169.282578,208.269684 149.401138,203.004379 
	C123.983452,196.272858 107.757042,170.275497 116.912170,141.418518 
z"/>
<path fill="#000000" opacity="1.000000" stroke="none" 
	d="
M169.843658,161.743118 
	C170.986984,166.064926 168.946503,170.463089 172.076385,174.771866 
	C178.471588,168.766602 178.838593,159.949356 183.147461,153.515778 
	C185.101639,153.198242 185.745712,154.490860 186.410431,155.592178 
	C189.529480,160.759689 188.450455,165.695816 185.782516,170.718307 
	C183.343979,175.308884 179.977234,177.454025 174.604996,177.397018 
	C160.135498,177.243454 159.962204,177.206482 157.568970,162.759583 
	C156.698929,157.507462 156.195587,151.897720 147.932663,149.918777 
	C154.641449,147.207001 156.496277,142.904144 156.555145,137.621826 
	C156.615509,132.203674 154.427002,128.067841 148.998444,125.607582 
	C155.997284,123.768059 163.348724,126.746536 166.571564,132.334137 
	C169.685089,137.732208 168.235611,141.732758 159.936783,149.768600 
	C165.440811,151.827286 168.609741,155.788193 169.843658,161.743118 
z"/>
<path fill="#000000" opacity="1.000000" stroke="none" 
	d="
M204.044922,172.812958 
	C199.645935,161.821899 195.430145,151.171539 191.256241,140.504791 
	C189.639954,136.374252 190.661041,132.765213 196.039322,124.665825 
	C203.324875,142.384949 210.300659,159.350708 217.406967,176.633896 
	C211.760254,177.799774 207.267029,178.059036 204.044922,172.812958 
z"/>
<path fill="#000000" opacity="1.000000" stroke="none" 
	d="
M142.012024,145.627838 
	C140.953278,147.132156 139.234283,147.553024 138.746658,149.488892 
	C147.316132,156.002136 143.744659,165.439789 143.995850,173.926483 
	C144.110168,177.789062 140.318863,176.898193 137.808472,177.055481 
	C135.329041,177.210846 133.653229,176.431961 133.662781,173.450302 
	C133.710754,158.464706 133.724533,143.478516 133.629852,128.493301 
	C133.606400,124.782623 135.866623,124.581467 138.562698,124.682274 
	C141.135239,124.778458 144.385025,124.008919 144.158981,128.264984 
	C143.855026,133.988266 145.663727,139.964706 142.012024,145.627838 
z"/>
</svg>